<?xml version="1.0" encoding="UTF-8" standalone="no"?>
<!-- Created with Inkscape (http://www.inkscape.org/) -->

<svg
   width="400mm"
   height="400mm"
   viewBox="0 0 400 399.99998"
   version="1.1"
   id="svg1644"
   inkscape:version="1.1.2 (b8e25be833, 2022-02-05)"
   sodipodi:docname="icon.svg"
   inkscape:export-filename="D:\Proyectos\curso\reactnativemobile\places-nestmann\assets\images\icon.png"
   inkscape:export-xdpi="65.024002"
   inkscape:export-ydpi="65.024002"
   xmlns:inkscape="http://www.inkscape.org/namespaces/inkscape"
   xmlns:sodipodi="http://sodipodi.sourceforge.net/DTD/sodipodi-0.dtd"
   xmlns="http://www.w3.org/2000/svg"
   xmlns:svg="http://www.w3.org/2000/svg">
  <sodipodi:namedview
     id="namedview1646"
     pagecolor="#505050"
     bordercolor="#ffffff"
     borderopacity="1"
     inkscape:pageshadow="0"
     inkscape:pageopacity="0"
     inkscape:pagecheckerboard="1"
     inkscape:document-units="mm"
     showgrid="false"
     inkscape:zoom="0.77771465"
     inkscape:cx="738.0599"
     inkscape:cy="612.04968"
     inkscape:window-width="2560"
     inkscape:window-height="1494"
     inkscape:window-x="-11"
     inkscape:window-y="-11"
     inkscape:window-maximized="1"
     inkscape:current-layer="layer1" />
  <defs
     id="defs1641" />
  <g
     inkscape:label="Capa 1"
     inkscape:groupmode="layer"
     id="layer1"
     transform="translate(89.77359,-13.479482)">
    <rect
       style="fill:#000000;fill-opacity:1;stroke-width:0.411865"
       id="rect1875"
       width="400"
       height="400"
       x="-89.77359"
       y="13.479482" />
    <path
       d="m -1.6605891,303.32338 v -6.223 h 111.8869991 111.887 v 6.223 6.223 H 110.22641 -1.6605891 Z m 17.0179991,-19.05 v -6.223 h 94.869 94.86899 v 6.223 6.223 h -94.86899 -94.869 z m 16.256,-56.388 v -43.561 h 12.446 12.445999 v 43.561 43.561 H 44.05941 31.61341 Z m 43.941999,0 v -43.561 h 12.573001 12.573 v 43.561 43.561 h -12.573 -12.573001 z m 44.196001,0 v -43.561 h 12.446 12.446 v 43.561 43.561 h -12.446 -12.446 z m 43.942,0 v -43.561 h 12.573 12.573 v 43.561 43.561 h -12.573 -12.573 z m -148.335999,-56.388 v -6.223 h 94.868999 94.86899 v 6.223 6.22301 h -94.86899 -94.869 z m 0.1397,-13.04125 c 0.132715,-0.11782 21.32965,-9.40311 47.104299,-20.63396 28.813521,-12.55498 47.1565,-20.4158 47.625,-20.40959 0.59492,0.008 92.96143,40.05268 94.61499,41.01957 0.21892,0.12801 -40.02737,0.22609 -94.60229,0.23054 -52.240815,0.004 -94.874714,-0.0887 -94.741999,-0.20656 z"
       style="fill:#d4af37;fill-opacity:1;stroke-width:0.254"
       id="path1569" />
  </g>
</svg>
